<svg xmlns="http://www.w3.org/2000/svg" width="16.217" height="27.461" viewBox="0 0 16.217 27.461"><defs><style>.a{fill:#04b2d6;stroke:#04b2d6;stroke-linejoin:round;}</style></defs><path class="a" d="M33,45.461a.256.256,0,0,1-.17-.043.344.344,0,0,1-.128-.383L38.5,32.55H32.489a.258.258,0,0,1-.256-.128c-.043-.085-.085-.213,0-.3L38.327,19.17a.285.285,0,0,1,.3-.17h6.349a.258.258,0,0,1,.256.128c.043.085.085.213,0,.3L40.543,29.439h6.519a.359.359,0,0,1,.3.17.322.322,0,0,1-.043.341l-14.1,15.425C33.171,45.461,33.086,45.461,33,45.461Zm-.043-13.55h6.008a.258.258,0,0,1,.256.128c.043.085.085.213,0,.3L34.109,43.415,46.338,30.036H40.031a.258.258,0,0,1-.256-.128c-.043-.085-.085-.213,0-.3L44.463,19.6H38.8Z" transform="translate(-31.676 -18.5)"/></svg>