<svg xmlns="http://www.w3.org/2000/svg" width="27.5" height="25.371" viewBox="0 0 27.5 25.371"><defs><style>.a{fill:#939393;}</style></defs><g transform="translate(-26.2 -28)"><path class="a" d="M48.752,32.2H47.084l-1.036-2.416A2.948,2.948,0,0,0,43.344,28H36.5a2.889,2.889,0,0,0-2.7,1.783L32.759,32.2H31.09a4.886,4.886,0,0,0-4.89,4.89V48.481a4.886,4.886,0,0,0,4.89,4.89H48.81a4.886,4.886,0,0,0,4.89-4.89V37.09A4.973,4.973,0,0,0,48.752,32.2Zm-13.4-1.726a1.2,1.2,0,0,1,1.151-.748h6.846a1.259,1.259,0,0,1,1.151.748l.748,1.726H34.6ZM51.917,48.481a3.192,3.192,0,0,1-3.164,3.164H31.033a3.192,3.192,0,0,1-3.164-3.164V37.09a3.192,3.192,0,0,1,3.164-3.164h17.72a3.192,3.192,0,0,1,3.164,3.164V48.481Z" transform="translate(0 0)"/><path class="a" d="M45.2,42.4a6.5,6.5,0,1,0,6.5,6.5A6.494,6.494,0,0,0,45.2,42.4Zm0,11.219a4.775,4.775,0,1,1,4.775-4.775A4.8,4.8,0,0,1,45.2,53.619Z" transform="translate(-5.309 -6.115)"/><circle class="a" cx="0.978" cy="0.978" r="0.978" transform="translate(47.947 35.939)"/></g></svg>