<svg xmlns="http://www.w3.org/2000/svg" width="22.703" height="28.151" viewBox="0 0 22.703 28.151"><defs><style>.a{fill:#b41020;}</style></defs><g transform="translate(-13.709 -5)"><path class="a" d="M14.163,33.151H35.957a.454.454,0,0,0,.454-.454V8a.454.454,0,0,0-.452-.454l-6.735-.014V5.454A.454.454,0,0,0,28.77,5H21.391a.454.454,0,0,0-.454.454V7.535H14.163a.454.454,0,0,0-.454.454V32.7A.454.454,0,0,0,14.163,33.151ZM28.316,5.908V7.945c0,.015,0,.029,0,.044s0,.029,0,.044V10.1H21.845V8s0-.006,0-.009,0-.006,0-.009V5.908Zm-13.7,2.535h6.32v2.111a.454.454,0,0,0,.454.454H28.77a.454.454,0,0,0,.454-.454V8.444l6.28.012V32.243H14.617Z" transform="translate(0)"/><path class="a" d="M56.651,56.689H52.2a.454.454,0,0,0,0,.908h4.456a.454.454,0,1,0,0-.908Z" transform="translate(-26.136 -35.521)"/><path class="a" d="M56.651,40.315H52.2a.454.454,0,0,0,0,.908h4.456a.454.454,0,1,0,0-.908Z" transform="translate(-26.136 -24.269)"/><path class="a" d="M32.453,39.569a.454.454,0,0,0,.662,0l2.363-2.522a.454.454,0,0,0-.663-.621l-2.032,2.169-.85-.907a.454.454,0,0,0-.663.621Z" transform="translate(-11.985 -21.498)"/><path class="a" d="M34.843,52.775l-2.032,2.169-.85-.907a.454.454,0,0,0-.663.621l1.181,1.261a.454.454,0,0,0,.662,0L35.506,53.4a.454.454,0,1,0-.662-.621Z" transform="translate(-12.003 -32.733)"/><path class="a" d="M56.651,73.064H52.2a.454.454,0,0,0,0,.908h4.456a.454.454,0,0,0,0-.908Z" transform="translate(-26.136 -46.774)"/><path class="a" d="M34.817,69.175l-2.032,2.169-.85-.907a.454.454,0,1,0-.663.621l1.181,1.261a.454.454,0,0,0,.662,0L35.48,69.8a.454.454,0,1,0-.662-.621Z" transform="translate(-11.986 -44.003)"/></g></svg>