<svg xmlns="http://www.w3.org/2000/svg" width="20.066" height="29.14" viewBox="0 0 20.066 29.14"><defs><style>.a{fill:#ffffff;}</style></defs><g transform="translate(201.35 -4003)"><path class="a" d="M37.323,28.131h7.584a.323.323,0,0,0,.323-.323V25.943a.323.323,0,0,0-.323-.323H37.323a.323.323,0,0,0-.323.323V27.8a.323.323,0,0,0,.323.329Zm.323-1.859h6.928v1.2H37.645Z" transform="translate(-232.428 3984.034)"/><path class="a" d="M30.171,28.543a.871.871,0,1,0-.871-.871A.871.871,0,0,0,30.171,28.543Zm0-1.081a.21.21,0,1,1-.21.21A.21.21,0,0,1,30.171,27.462Z" transform="translate(-227.213 3983.235)"/><path class="a" d="M24.071,28.543a.871.871,0,1,0-.871-.871A.871.871,0,0,0,24.071,28.543Zm0-1.081a.21.21,0,1,1-.21.21A.21.21,0,0,1,24.071,27.462Z" transform="translate(-223.082 3983.235)"/><path class="a" d="M72.281,28.543a.871.871,0,1,0-.871-.871A.871.871,0,0,0,72.281,28.543Zm0-1.081a.21.21,0,1,1-.21.21A.21.21,0,0,1,72.281,27.462Z" transform="translate(-255.734 3983.235)"/><path class="a" d="M66.171,28.543a.871.871,0,1,0-.871-.871A.871.871,0,0,0,66.171,28.543Zm0-1.081a.21.21,0,1,1-.21.21A.21.21,0,0,1,66.171,27.462Z" transform="translate(-251.596 3983.235)"/><path class="a" d="M38.619,9.492l-1.43-1.43a.323.323,0,0,0-.232-.1H34.146V7.02a.323.323,0,0,0-.323-.323h-.645V5.323A.323.323,0,0,0,32.856,5h-2a.323.323,0,0,0-.323.323V6.678h-.645A.323.323,0,0,0,29.561,7v.946H27.989V7.02a.323.323,0,0,0-.323-.323h-.645V5.323A.323.323,0,0,0,26.7,5h-2a.323.323,0,0,0-.323.323V6.678h-.645A.323.323,0,0,0,23.4,7v.946H20.409a.323.323,0,0,0-.232.1l-1.43,1.43a.323.323,0,0,0-.1.232V32.388a.323.323,0,0,0,.1.232l1.426,1.423a.323.323,0,0,0,.232.1H36.957a.323.323,0,0,0,.232-.1l1.43-1.43a.323.323,0,0,0,.1-.232V9.724A.323.323,0,0,0,38.619,9.492ZM31.181,5.665h1.333V6.688H31.181Zm-.968,1.685h3.272v.616H30.209ZM25.023,5.665h1.333V6.688H25.023Zm-.968,1.685h3.272v.616H24.052ZM20.548,8.64H36.834L38.07,9.876v5.292H19.308V9.86Zm5.722,7.19h5V16.1h-5ZM36.834,33.488H20.544l-1.236-1.236V15.83h6.3v.607a.323.323,0,0,0,.323.323H31.6a.323.323,0,0,0,.323-.323V15.83h6.131V32.253Z" transform="translate(-220 3998)"/><path class="a" d="M58.848,45.58H51.823a.323.323,0,0,0-.323.323V59.443a.323.323,0,0,0,.323.323h7.025a.323.323,0,0,0,.323-.323V45.909a.323.323,0,0,0-.323-.329Zm-.323.645v1.136h-6.37v-1.12Zm-6.37,9.084V53.986h6.364V55.31Zm6.364.645v1.323H52.155V55.955Zm-6.364-2.627V52.005h6.364v1.323Zm0-1.985V50.02h6.364v1.323Zm0-1.985v-1.32h6.364v1.323Zm0,9.752V57.956h6.364v1.159Z" transform="translate(-242.249 3970.515)"/><path class="a" d="M32.088,45.58H25.063a.323.323,0,0,0-.323.323V59.443a.323.323,0,0,0,.323.323h7.025a.323.323,0,0,0,.323-.323V45.909a.323.323,0,0,0-.323-.329Zm-.323.645v1.136H25.4v-1.12ZM25.4,55.31V53.986h6.364V55.31Zm6.364.645v1.323H25.4V55.955ZM25.4,53.328V52.005h6.364v1.323Zm0-1.985V50.02h6.364v1.323Zm0-1.985v-1.32h6.364v1.323Zm0,9.752V57.956h6.364v1.159Z" transform="translate(-224.125 3970.515)"/><path class="a" d="M37.323,22.265h7.584a.323.323,0,0,0,0-.645H37.323a.323.323,0,0,0,0,.645Z" transform="translate(-232.428 3986.743)"/><path class="a" d="M37.323,18.745h7.584a.323.323,0,0,0,0-.645H37.323a.323.323,0,0,0,0,.645Z" transform="translate(-232.428 3989.127)"/></g></svg>