<svg xmlns="http://www.w3.org/2000/svg" width="18" height="15.429" viewBox="0 0 18 15.429"><defs><style>.a{fill:#012560;}</style></defs><path class="a" d="M15.46,11.539a.625.625,0,0,0-.819,0L6.262,18.817a.59.59,0,0,0-.049.847.625.625,0,0,0,.868.048l1.433-1.245v6.15a2.225,2.225,0,0,0,2.251,2.2h8.584a2.225,2.225,0,0,0,2.251-2.2v-6.15l1.433,1.245a.625.625,0,0,0,.868-.048.59.59,0,0,0-.049-.847Zm4.912,13.078a1.011,1.011,0,0,1-1.023,1h-8.6a1.011,1.011,0,0,1-1.023-1V17.4l5.321-4.613L20.372,17.4Z" transform="translate(-6.057 -11.386)"/></svg>