<svg xmlns="http://www.w3.org/2000/svg" width="25.603" height="25.603" viewBox="0 0 25.603 25.603"><defs><style>.a{fill:#b41020;}</style></defs><g transform="translate(-99 -133)"><path class="a" d="M43.217,12.257a1.08,1.08,0,0,1-.932-.52L41.4,10.293a.288.288,0,0,0-.248-.14H39.312A1.8,1.8,0,0,1,37.52,8.361V3.788A1.792,1.792,0,0,1,39.312,2h7.813a1.792,1.792,0,0,1,1.788,1.788V8.361a1.792,1.792,0,0,1-1.788,1.792h-1.84a.292.292,0,0,0-.252.14l-.884,1.444a1.084,1.084,0,0,1-.932.52ZM39.312,2.8a.992.992,0,0,0-.992.988V8.361a.992.992,0,0,0,.992.992h1.84a1.088,1.088,0,0,1,.932.52l.884,1.444a.288.288,0,0,0,.252.14.284.284,0,0,0,.248-.14l.888-1.444a1.1,1.1,0,0,1,.932-.52h1.84a.992.992,0,0,0,.984-.992V3.788a.992.992,0,0,0-.988-.988Z" transform="translate(75.689 131)"/><path class="a" d="M49.939,7.63H45.07a.4.4,0,1,1,0-.8h4.868a.4.4,0,0,1,0,.8Z" transform="translate(71.4 128.102)"/><path class="a" d="M49.355,11.99H42.13a.4.4,0,0,1,0-.8h7.225a.4.4,0,0,1,0,.8Z" transform="translate(73.164 125.486)"/><path class="a" d="M49.939,16.34H45.07a.4.4,0,1,1,0-.8h4.868a.4.4,0,0,1,0,.8Z" transform="translate(71.4 122.877)"/><path class="a" d="M11.2,41.324a1.6,1.6,0,0,1-1.364-.764L8.4,38.259a.8.8,0,0,0-.684-.4H4.7A2.708,2.708,0,0,1,2,35.175v-7.6a2.7,2.7,0,0,1,2.7-2.7H17.662a2.7,2.7,0,0,1,2.7,2.7v7.6a2.708,2.708,0,0,1-2.7,2.7h-3.02a.8.8,0,0,0-.684.4l-1.408,2.3A1.6,1.6,0,0,1,11.2,41.324ZM4.7,25.69a1.9,1.9,0,0,0-1.9,1.9v7.6a1.9,1.9,0,0,0,1.9,1.9h3.02a1.6,1.6,0,0,1,1.364.76l1.412,2.3a.8.8,0,0,0,.7.36h0a.8.8,0,0,0,.68-.4l1.412-2.3a1.6,1.6,0,0,1,1.364-.764h3.02a1.9,1.9,0,0,0,1.9-1.9v-7.6a1.9,1.9,0,0,0-1.9-1.9Z" transform="translate(97 117.279)"/><path class="a" d="M17.328,39.917a.324.324,0,0,1-.124-.02c-.2-.064-4.864-1.6-4.864-5.761a2.836,2.836,0,0,1,4.985-1.856,2.84,2.84,0,0,1,4.993,1.856c0,4.148-4.668,5.7-4.868,5.761A.316.316,0,0,1,17.328,39.917ZM15.18,32.1a2.04,2.04,0,0,0-2.04,2.04c0,3.224,3.48,4.692,4.188,4.957.7-.264,4.188-1.74,4.188-4.957a2.04,2.04,0,0,0-3.836-.96.4.4,0,0,1-.7,0,2.044,2.044,0,0,0-1.8-1.084Z" transform="translate(90.796 113.426)"/></g></svg>