<svg xmlns="http://www.w3.org/2000/svg" width="21.334" height="30" viewBox="0 0 21.334 30"><defs><style>.a{fill:#012560;}</style></defs><g transform="translate(-54.606 -753.5)"><path class="a" d="M-664.692,12.393a.8.8,0,0,1,.235-.568,14.678,14.678,0,0,1,4.882-3.243,14.688,14.688,0,0,1,5.55-1.081,14.688,14.688,0,0,1,5.55,1.081,14.677,14.677,0,0,1,4.882,3.243.8.8,0,0,1,0,1.136.8.8,0,0,1-1.136,0,13.162,13.162,0,0,0-18.592,0,.8.8,0,0,1-1.136,0A.8.8,0,0,1-664.692,12.393Z" transform="translate(719.298 745.999)"/><path class="a" d="M-608.243,135.111a.8.8,0,0,1,.235-.568,11.9,11.9,0,0,1,3.959-2.63,11.911,11.911,0,0,1,4.5-.877,11.911,11.911,0,0,1,4.5.877,11.9,11.9,0,0,1,3.959,2.63.8.8,0,0,1,0,1.136.8.8,0,0,1-1.136,0,10.369,10.369,0,0,0-14.647,0,.8.8,0,0,1-1.136,0A.8.8,0,0,1-608.243,135.111Z" transform="translate(664.822 626.78)"/><path class="a" d="M-545.02,265.265a.8.8,0,0,1,.235-.568,8.781,8.781,0,0,1,6.249-2.59,8.781,8.781,0,0,1,6.249,2.59.8.8,0,0,1,0,1.136.8.8,0,0,1-1.136,0,7.24,7.24,0,0,0-10.228,0,.8.8,0,0,1-1.136,0A.8.8,0,0,1-545.02,265.265Z" transform="translate(603.809 500.291)"/><path class="a" d="M-506.653,443.816a4.221,4.221,0,0,0,4.1-4.224c0-1.1-.125-3.55-1.375-3.55-.5,0-1.175.4-2.125,1.4l-1.5-1.35-1.675,1.35c-.85-1-1.5-1.35-2-1.35-1.225,0-1.325,2.525-1.325,3.5a4.143,4.143,0,0,0,4.1,4.249v5.374c-1.25-1.675-2.525-2.625-3.25-2.625-.55,0-.85.375-.85.975,0,2.175,2.6,3.5,4.85,3.5a5.379,5.379,0,0,0,5.124-3.15,1,1,0,0,0-.775-1.35c-.775,0-2.025.9-3.3,2.625v-5.375Zm-.9-1.45c-1.625,0-3.55-.8-3.55-3.15a4.732,4.732,0,0,1,.2-1.4l1.7,1.5,1.625-1.45,1.475,1.475,1.85-1.55a8.644,8.644,0,0,1,.075,1.075A3.167,3.167,0,0,1-507.552,442.366Z" transform="translate(572.475 332.435)"/></g></svg>