<svg xmlns="http://www.w3.org/2000/svg" width="13.459" height="22.66" viewBox="0 0 13.459 22.66"><defs><style>.a{fill:#fff;stroke:#fff;stroke-linejoin:round;}</style></defs><path class="a" d="M32.853,40.66a.21.21,0,0,1-.14-.035.281.281,0,0,1-.1-.314l4.744-10.22H32.434a.211.211,0,0,1-.209-.1c-.035-.07-.07-.174,0-.244l4.988-10.6a.234.234,0,0,1,.244-.14h5.2a.211.211,0,0,1,.209.1c.035.07.07.174,0,.244l-3.837,8.2h5.337a.294.294,0,0,1,.244.14.263.263,0,0,1-.035.279L33.027,40.59C32.992,40.66,32.922,40.66,32.853,40.66Zm-.035-11.092h4.918a.211.211,0,0,1,.209.1c.035.07.07.174,0,.244l-4.186,9.069L43.77,28.034H38.608a.211.211,0,0,1-.209-.1c-.035-.07-.07-.174,0-.244l3.837-8.2H37.6Z" transform="translate(-31.676 -18.5)"/></svg>