<svg xmlns="http://www.w3.org/2000/svg" xmlns:xlink="http://www.w3.org/1999/xlink" width="94" height="94" viewBox="0 0 94 94"><defs><style>.a{fill:#f7b068;}.b{fill:#fff;}.c{filter:url(#a);}</style><filter id="a" x="0" y="0" width="94" height="94" filterUnits="userSpaceOnUse"><feOffset dy="3" input="SourceAlpha"/><feGaussianBlur stdDeviation="5" result="b"/><feFlood flood-opacity="0.212"/><feComposite operator="in" in2="b"/><feComposite in="SourceGraphic"/></filter></defs><g transform="translate(-17 -780)"><g class="c" transform="matrix(1, 0, 0, 1, 17, 780)"><rect class="a" width="64" height="64" rx="31" transform="translate(15 12)"/></g><g transform="translate(48.351 808.326)"><path class="b" d="M17.653,18.674v7.652a1,1,0,1,1-2,0V18.674a1,1,0,0,1,2,0Zm-8,1a1,1,0,0,0-1,1v5.652a1,1,0,0,0,2,0V20.674A1,1,0,0,0,9.653,19.674Zm14-5a1,1,0,0,0-1,1V26.326a1,1,0,0,0,2,0V15.674A1,1,0,0,0,23.653,14.674Zm3.34-9.088a1,1,0,0,0-1.084-.908H25.9l-3.933.366a1,1,0,1,0,.185,1.992l1.534-.143c-4.3,4.615-10.949,7.341-18.037,7.341a1,1,0,0,0,0,2c7.792,0,14.848-2.921,19.563-8.047L25.351,9.7a1,1,0,0,0,1,.912h.09a1,1,0,0,0,.907-1.084Z"/></g></g></svg>