<svg xmlns="http://www.w3.org/2000/svg" width="25" height="21.429" viewBox="0 0 25 21.429"><defs><style>.a{fill:#fff;}</style></defs><path class="a" d="M19.117,11.6a.868.868,0,0,0-1.137,0L6.342,21.707a.819.819,0,0,0-.068,1.177.868.868,0,0,0,1.205.067l1.99-1.729v8.541A3.09,3.09,0,0,0,12.6,32.815H24.518a3.09,3.09,0,0,0,3.127-3.052V21.221l1.99,1.729a.868.868,0,0,0,1.205-.067.819.819,0,0,0-.068-1.177Zm6.822,18.164a1.4,1.4,0,0,1-1.421,1.387H12.579a1.4,1.4,0,0,1-1.421-1.387V19.742l7.391-6.407,7.391,6.407Z" transform="translate(-6.057 -11.386)"/></svg>