<svg xmlns="http://www.w3.org/2000/svg" width="12.35" height="18.011" viewBox="0 0 12.35 18.011"><defs><style>.a{fill:none;}</style></defs><path class="a" d="M36.744,23.311c-.253,2.187-1.691,4.262-2.974,6.113-1.193,1.721-2.319,3.347-2.319,4.756a5.574,5.574,0,0,0,11.148,0C42.6,29.5,38.2,24.754,36.744,23.311ZM37.973,38.49a.293.293,0,0,1-.078.011.3.3,0,0,1-.078-.591,4.261,4.261,0,0,0,3-5.216.3.3,0,1,1,.581-.156A4.862,4.862,0,0,1,37.973,38.49Z" transform="translate(-30.851 -22.344)"/><path d="M38.535,23.815a26.775,26.775,0,0,0-3.249-3.644.3.3,0,0,0-.5.224c0,2.243-1.477,4.375-2.905,6.437-1.247,1.8-2.426,3.5-2.426,5.1a6.175,6.175,0,0,0,12.35,0C41.8,28.861,40.026,25.823,38.535,23.815ZM35.628,37.5a5.58,5.58,0,0,1-5.574-5.574c0-1.409,1.126-3.035,2.319-4.756,1.283-1.851,2.721-3.926,2.974-6.113C36.8,22.5,41.2,27.248,41.2,31.93A5.58,5.58,0,0,1,35.628,37.5Z" transform="translate(-29.453 -20.095)"/><path d="M55.7,53.492a.3.3,0,1,0-.581.156,4.261,4.261,0,0,1-3,5.216.3.3,0,0,0,.078.591.293.293,0,0,0,.078-.011A4.862,4.862,0,0,0,55.7,53.492Z" transform="translate(-45.15 -43.3)"/></svg>