<svg xmlns="http://www.w3.org/2000/svg" width="36.814" height="32.02" viewBox="0 0 36.814 32.02"><defs><style>.a{fill:#939393;stroke:#fff;}</style></defs><g transform="translate(-56.089 -487.089)"><g transform="translate(56.589 487.589)"><path class="a" d="M33.825,53.567H31.351a3.523,3.523,0,0,1-3.519-3.52V34.057a3.523,3.523,0,0,1,3.519-3.52H47.342a3.524,3.524,0,0,1,3.52,3.52v1.077a1.2,1.2,0,0,1-2.4,0V34.057a1.125,1.125,0,0,0-1.123-1.123H31.351a1.123,1.123,0,0,0-1.122,1.123V50.047a1.124,1.124,0,0,0,1.122,1.123h2.474a1.2,1.2,0,1,1,0,2.4Z" transform="translate(-27.832 -30.537)"/></g><g transform="translate(69.373 491.584)"><path class="a" d="M63.342,58.567H57.673a1.2,1.2,0,0,1,0-2.4h5.669a1.124,1.124,0,0,0,1.123-1.123V39.057a1.125,1.125,0,0,0-1.123-1.123H47.351a1.123,1.123,0,0,0-1.122,1.123v1.675a1.2,1.2,0,1,1-2.4,0V39.057a3.523,3.523,0,0,1,3.519-3.52H63.342a3.524,3.524,0,0,1,3.52,3.52V55.047A3.524,3.524,0,0,1,63.342,58.567Z" transform="translate(-43.832 -35.537)"/></g><g transform="translate(61.383 495.579)"><path class="a" d="M53.342,63.567H37.351a3.523,3.523,0,0,1-3.519-3.52V44.057a3.523,3.523,0,0,1,3.519-3.52H53.342a3.524,3.524,0,0,1,3.52,3.52V60.047A3.524,3.524,0,0,1,53.342,63.567ZM37.351,42.935a1.123,1.123,0,0,0-1.122,1.123V60.048a1.124,1.124,0,0,0,1.122,1.123H53.342a1.124,1.124,0,0,0,1.123-1.123V44.057a1.125,1.125,0,0,0-1.123-1.123H37.351Z" transform="translate(-33.832 -40.537)"/></g><g transform="translate(61.383 504.614)"><path class="a" d="M35.031,60.009a1.2,1.2,0,0,1-.867-2.027l5.508-5.767a1.2,1.2,0,0,1,1.734,1.656L35.9,59.639A1.2,1.2,0,0,1,35.031,60.009Z" transform="translate(-33.832 -51.845)"/></g><g transform="translate(66.892 504.616)"><path class="a" d="M52.151,65.84a1.2,1.2,0,0,1-.9-.406l-10.226-11.6a1.2,1.2,0,0,1,1.8-1.585l10.227,11.6a1.2,1.2,0,0,1-.9,1.991Z" transform="translate(-40.726 -51.847)"/></g><g transform="translate(73.299 506.661)"><path class="a" d="M49.943,60.817a1.2,1.2,0,0,1-.893-2l3.583-4.013a1.2,1.2,0,1,1,1.788,1.6l-3.583,4.013A1.2,1.2,0,0,1,49.943,60.817Z" transform="translate(-48.745 -54.407)"/></g><g transform="translate(76.882 506.661)"><path class="a" d="M59.559,62.318a1.2,1.2,0,0,1-.877-.382L53.55,56.422A1.2,1.2,0,1,1,55.3,54.789L60.435,60.3a1.2,1.2,0,0,1-.877,2.015Z" transform="translate(-53.229 -54.407)"/></g><g transform="translate(74.202 499.275)"><path class="a" d="M53.043,51.5a3.167,3.167,0,1,1,3.168-3.167A3.171,3.171,0,0,1,53.043,51.5Zm0-3.938a.77.77,0,1,0,.771.77A.772.772,0,0,0,53.043,47.56Z" transform="translate(-49.875 -45.163)"/></g></g></svg>