<svg xmlns="http://www.w3.org/2000/svg" width="17.111" height="22" viewBox="0 0 17.111 22"><defs><style>.a{fill:#012560;fill-rule:evenodd;}</style></defs><path class="a" d="M9.889,8.124a3.79,3.79,0,0,1,3.667-3.9,3.79,3.79,0,0,1,3.667,3.9v2.147h1.222V8.124A5.011,5.011,0,0,0,13.556,3,5.011,5.011,0,0,0,8.667,8.124v2.21H8.056A3.055,3.055,0,0,0,5,13.389v8.556A3.055,3.055,0,0,0,8.056,25h11a3.055,3.055,0,0,0,3.056-3.056V13.389a3.055,3.055,0,0,0-3.056-3.056H9.889Zm-.611,3.432H8.056a1.834,1.834,0,0,0-1.833,1.833v8.556a1.834,1.834,0,0,0,1.833,1.833h11a1.834,1.834,0,0,0,1.833-1.833V13.389a1.834,1.834,0,0,0-1.833-1.833Zm4.278,3.639a.611.611,0,0,1,.611.611V19.92a.611.611,0,0,1-1.222,0V15.805A.611.611,0,0,1,13.556,15.194Z" transform="translate(-5 -3)"/></svg>