<svg xmlns="http://www.w3.org/2000/svg" width="25.461" height="27.5" viewBox="0 0 25.461 27.5"><defs><style>.a{fill:#1d9793;}</style></defs><path class="a" d="M36.009,31.321h-.828V26.027a4.691,4.691,0,0,0-4.694-4.688,4.449,4.449,0,0,0-.943.108L21.434,14.3a4.488,4.488,0,0,0,.034-.525,4.2,4.2,0,1,0-7.954,1.859L11.23,21.8a1.961,1.961,0,0,0,.68,2.27v3.994a.552.552,0,1,0,1.1,0V24.451c.027,0,.047.007.074.007a1.967,1.967,0,0,0,1.684-.956l3.152-5.24L25.8,26.869v4.445H22.956a.569.569,0,0,0-.33.108l-6.27,4.668a.549.549,0,0,0,.33.99h19.33a.555.555,0,0,0,.552-.552V31.86A.558.558,0,0,0,36.009,31.321Zm-6.035-8.042a2.216,2.216,0,0,1,.114,3.213,2.207,2.207,0,0,1-3.213-.054l-8.022-8.776A4.219,4.219,0,0,0,21.1,15.48Zm-12.7-12.6a3.1,3.1,0,1,1-3.1,3.1A3.1,3.1,0,0,1,17.272,10.678ZM13.823,22.943a.87.87,0,0,1-1.563-.748l2.027-5.469a4.144,4.144,0,0,0,2.539,1.226ZM26.9,27.812a3.226,3.226,0,0,0,1.563.438h.061A3.315,3.315,0,0,0,30.7,22.444h0a3.561,3.561,0,0,1,3.381,3.57v5.294H26.9Zm8.56,8.177H18.342l4.8-3.57H35.457v3.57Z" transform="translate(-11.107 -9.58)"/></svg>