<svg xmlns="http://www.w3.org/2000/svg" width="18.89" height="16.284" viewBox="0 0 18.89 16.284"><defs><style>.a{fill:#359413;}</style></defs><path class="a" d="M39.89,29.885a3.587,3.587,0,0,1-3.583,3.583H21.326a.326.326,0,0,1,0-.651H36.307a2.931,2.931,0,1,0-2.931-2.931.326.326,0,0,1-.651,0,3.583,3.583,0,0,1,7.165,0Zm-18.564.326h7.816a2.605,2.605,0,1,0-2.605-2.605.326.326,0,0,0,.651,0,1.954,1.954,0,1,1,1.954,1.954H21.326a.326.326,0,0,0,0,.651ZM33.05,36.073H21.326a.326.326,0,0,0,0,.651H33.05A1.954,1.954,0,1,1,31.1,38.679a.326.326,0,0,0-.651,0,2.605,2.605,0,1,0,2.605-2.605Z" transform="translate(-21 -25)"/></svg>