<svg xmlns="http://www.w3.org/2000/svg" width="18.89" height="18.89" viewBox="0 0 18.89 18.89"><defs><style>.a{fill:#b41020;}</style></defs><g transform="translate(-99 -133)"><path class="a" d="M41.723,9.568a.8.8,0,0,1-.688-.384L40.38,8.118a.213.213,0,0,0-.183-.1H38.842A1.325,1.325,0,0,1,37.52,6.693V3.319A1.322,1.322,0,0,1,38.842,2h5.764a1.322,1.322,0,0,1,1.319,1.319V6.693a1.322,1.322,0,0,1-1.319,1.322H43.249a.215.215,0,0,0-.186.1l-.652,1.065a.8.8,0,0,1-.688.384ZM38.842,2.59a.732.732,0,0,0-.732.729V6.693a.732.732,0,0,0,.732.732H40.2a.8.8,0,0,1,.688.384l.652,1.065a.213.213,0,0,0,.186.1.21.21,0,0,0,.183-.1l.655-1.065a.809.809,0,0,1,.688-.384H44.61a.732.732,0,0,0,.726-.732V3.319a.732.732,0,0,0-.729-.729Z" transform="translate(71.964 131)"/><path class="a" d="M48.557,7.42H44.965a.3.3,0,0,1,0-.59h3.592a.3.3,0,0,1,0,.59Z" transform="translate(66.924 127.595)"/><path class="a" d="M47.356,11.78h-5.33a.3.3,0,0,1,0-.59h5.33a.3.3,0,0,1,0,.59Z" transform="translate(68.996 124.522)"/><path class="a" d="M48.557,16.13H44.965a.3.3,0,0,1,0-.59h3.592a.3.3,0,0,1,0,.59Z" transform="translate(66.924 121.457)"/><path class="a" d="M8.788,37.01a1.181,1.181,0,0,1-1.006-.564l-1.06-1.7a.59.59,0,0,0-.5-.3H4a2,2,0,0,1-2-1.98V26.865a2,2,0,0,1,2-2h9.56a2,2,0,0,1,2,2v5.608a2,2,0,0,1-2,2H11.327a.59.59,0,0,0-.5.3l-1.039,1.7A1.181,1.181,0,0,1,8.788,37.01ZM4,25.475a1.4,1.4,0,0,0-1.4,1.4v5.608a1.4,1.4,0,0,0,1.4,1.4H6.224a1.181,1.181,0,0,1,1.006.561l1.042,1.7a.59.59,0,0,0,.517.266h0a.59.59,0,0,0,.5-.3l1.042-1.7a1.181,1.181,0,0,1,1.006-.564h2.228a1.4,1.4,0,0,0,1.4-1.4V26.85a1.4,1.4,0,0,0-1.4-1.4Z" transform="translate(97 114.88)"/><path class="a" d="M16.021,37.655a.239.239,0,0,1-.091-.015c-.148-.047-3.589-1.181-3.589-4.25a2.093,2.093,0,0,1,3.678-1.37A2.1,2.1,0,0,1,19.7,33.39c0,3.061-3.444,4.2-3.592,4.25A.233.233,0,0,1,16.021,37.655Zm-1.585-5.77A1.505,1.505,0,0,0,12.93,33.39c0,2.379,2.568,3.462,3.09,3.657.519-.195,3.09-1.284,3.09-3.657a1.505,1.505,0,0,0-2.83-.708.3.3,0,0,1-.519,0,1.508,1.508,0,0,0-1.325-.8Z" transform="translate(89.712 110.353)"/></g></svg>