<svg xmlns="http://www.w3.org/2000/svg" width="18.071" height="16.565" viewBox="0 0 18.071 16.565"><defs><style>.a{fill:#e07700;}</style></defs><g transform="translate(0 -21.337)"><g transform="translate(0 21.337)"><path class="a" d="M18.071,36l-.753-13.553a.376.376,0,0,0-.129-.264.358.358,0,0,0-.279-.091l-1.4.117a1.878,1.878,0,0,0-3.315.277l-4.776.4L2.7,22.1a.372.372,0,0,0-.432.306L.005,35.2a.377.377,0,0,0,.309.437l3.379.563.072,1.345a.377.377,0,0,0,.376.356l.041,0L10,37.253l3.864.644a.355.355,0,0,0,.063.005.375.375,0,0,0,.37-.312l.147-.831,3.29-.366A.376.376,0,0,0,18.071,36ZM12.832,22.964l.006-.018a1.126,1.126,0,0,1,2.126-.178l.008.018a1.11,1.11,0,0,1,.087.434,1.129,1.129,0,0,1-.532.955l-.006,0a1.12,1.12,0,0,1-.592.172,1.12,1.12,0,0,1-1.1-1.385Zm-.781.288a1.853,1.853,0,0,0,.055.411l-1.662-.277ZM4.5,37.108l-.042-.78,2.823.471Zm9.127-.016L.813,34.957,2.941,22.9l9.238,1.54-1.527,1.527a.376.376,0,0,0,.532.532l1.71-1.71a1.839,1.839,0,0,0,1.911.088l.946.157Zm.959-1.105,1.976-11.2a.377.377,0,0,0-.309-.437l-.737-.123a1.743,1.743,0,0,0,.272-1.29l.8-.067L17.3,35.685Z" transform="translate(0 -21.337)"/></g></g></svg>