<svg xmlns="http://www.w3.org/2000/svg" width="18.789" height="28" viewBox="0 0 18.789 28"><defs><style>.a{fill:#012560;}</style></defs><path class="a" d="M23.872,0a.871.871,0,0,0-.879.879,4.293,4.293,0,0,1-1.486,3.236L7.624,16.139l-.327.28a4.387,4.387,0,0,0,2.971,7.576h.047l5.266.109c1.174,0,2.139,1.377,2.139,3.018a.879.879,0,0,0,1.758,0,4.822,4.822,0,0,0-2.4-4.4,2.434,2.434,0,0,1,2.022-.863,2.7,2.7,0,0,1,1.556.521A.88.88,0,1,0,21.748,21a4.441,4.441,0,0,0-2.606-.894,3.889,3.889,0,0,0-3.827,2.232H13.761l-3.438-.07h0a2.637,2.637,0,0,1-1.867-4.5l.264-.226,2.536-2.2,11.363-9.9A6.036,6.036,0,0,0,24.712.879.879.879,0,0,0,23.872,0Z" transform="translate(-5.922 0)"/></svg>