<svg xmlns="http://www.w3.org/2000/svg" width="24.617" height="22.565" viewBox="0 0 24.617 22.565"><defs><style>.a{fill:#e07700;}</style></defs><g transform="translate(0 -21.337)"><g transform="translate(0 21.337)"><path class="a" d="M24.616,41.309,23.59,22.847a.512.512,0,0,0-.175-.359.488.488,0,0,0-.379-.124l-1.9.159a2.558,2.558,0,0,0-4.515.377l-6.506.543L3.673,22.37a.507.507,0,0,0-.589.416L.008,40.223a.513.513,0,0,0,.421.595l4.6.767.1,1.832a.514.514,0,0,0,.512.485.5.5,0,0,0,.056,0l7.929-.881,5.264.877a.484.484,0,0,0,.085.007.51.51,0,0,0,.5-.425l.2-1.131,4.481-.5A.513.513,0,0,0,24.616,41.309ZM17.48,23.554l.008-.025a1.533,1.533,0,0,1,2.9-.243l.011.025a1.512,1.512,0,0,1,.119.591,1.537,1.537,0,0,1-.724,1.3l-.008,0a1.525,1.525,0,0,1-.806.234,1.526,1.526,0,0,1-1.5-1.886Zm-1.064.393a2.525,2.525,0,0,0,.075.56l-2.264-.377ZM6.125,42.82l-.057-1.063,3.845.641ZM18.558,42.8,1.107,39.891l2.9-16.427,12.584,2.1-2.08,2.08a.513.513,0,0,0,.725.725l2.329-2.329a2.505,2.505,0,0,0,2.6.12l1.289.214Zm1.307-1.506,2.691-15.252a.513.513,0,0,0-.421-.595l-1-.167a2.374,2.374,0,0,0,.37-1.757L22.6,23.43l.969,17.451Z" transform="translate(0 -21.337)"/></g></g></svg>