<svg xmlns="http://www.w3.org/2000/svg" width="17.387" height="21.66" viewBox="0 0 17.387 21.66"><defs><style>.a{fill:#012560;}</style></defs><path class="a" d="M30.152,34.386a3.047,3.047,0,0,1-3.039-3.019.751.751,0,0,1,1.5,0,1.538,1.538,0,0,0,3.076,0,.751.751,0,0,1,1.5,0,3.047,3.047,0,0,1-3.039,3.019Zm7.9-6.017h-.461V22.893a7.481,7.481,0,0,0-4.911-7v-.919a2.589,2.589,0,0,0-5.132,0v.919a7.481,7.481,0,0,0-4.911,7v5.476h-.47a.747.747,0,1,0,0,1.494H38.063a.747.747,0,1,0,0-1.494Zm-13.916,0V22.893a5.979,5.979,0,1,1,11.957,0v5.476H24.138Zm4.911-13.4c0-.408.489-.753,1.068-.753s1.068.345,1.068.753v.544a7.41,7.41,0,0,0-2.136,0Z" transform="translate(-21.423 -12.726)"/></svg>