<svg xmlns="http://www.w3.org/2000/svg" width="15.736" height="21.419" viewBox="0 0 15.736 21.419"><g transform="translate(-41 -525)"><path d="M16.841,63.683a2.841,2.841,0,1,1,2.841-2.841,2.841,2.841,0,0,1-2.841,2.841Zm0-3.934a1.093,1.093,0,1,0,1.093,1.093A1.093,1.093,0,0,0,16.841,59.749Z" transform="translate(30.06 474.431)"/><path d="M18.841,46.683a2.841,2.841,0,1,1,2.841-2.841,2.841,2.841,0,0,1-2.841,2.841Zm0-3.934a1.093,1.093,0,1,0,1.093,1.093A1.093,1.093,0,0,0,18.841,42.748Z" transform="translate(28.934 484)"/><path d="M32.841,54.683a2.841,2.841,0,1,1,2.841-2.841,2.841,2.841,0,0,1-2.841,2.841Zm0-3.934a1.093,1.093,0,1,0,1.093,1.093A1.093,1.093,0,0,0,32.841,50.748Z" transform="translate(21.054 479.497)"/><path d="M30.841,70.683a2.841,2.841,0,1,1,2.841-2.841A2.841,2.841,0,0,1,30.841,70.683Zm0-3.934a1.093,1.093,0,1,0,1.093,1.093A1.093,1.093,0,0,0,30.841,66.748Z" transform="translate(22.18 470.491)"/><path d="M9.841,82.683a2.841,2.841,0,1,1,2.841-2.841A2.841,2.841,0,0,1,9.841,82.683Zm0-3.934a1.093,1.093,0,1,0,1.093,1.093A1.093,1.093,0,0,0,9.841,78.748Z" transform="translate(34 463.736)"/></g></svg>