<svg xmlns="http://www.w3.org/2000/svg" width="21.709" height="21.709" viewBox="0 0 21.709 21.709"><g transform="translate(-33.013 -651.838)"><path d="M20.855,10A10.855,10.855,0,1,0,31.709,20.855,10.867,10.867,0,0,0,20.855,10Zm0,21.167A10.312,10.312,0,1,1,31.167,20.855,10.324,10.324,0,0,1,20.855,31.167Z" transform="translate(23.013 641.838)"/><path d="M27.719,19.421a8.3,8.3,0,1,0,8.3,8.3A8.308,8.308,0,0,0,27.719,19.421Zm0,16.054a7.755,7.755,0,1,1,7.755-7.755A7.764,7.764,0,0,1,27.719,35.475Z" transform="translate(16.149 634.974)"/><path d="M53.9,50.749H53.12a2.106,2.106,0,0,0-.424-1.021l.55-.55a.271.271,0,0,0-.384-.384l-.55.55a2.106,2.106,0,0,0-1.021-.424v-.777a.271.271,0,1,0-.543,0v.777a2.106,2.106,0,0,0-1.021.424l-.55-.55a.271.271,0,0,0-.384.384l.55.55a2.106,2.106,0,0,0-.424,1.021h-.777a.271.271,0,1,0,0,.543h.777a2.106,2.106,0,0,0,.424,1.021l-.55.55a.271.271,0,1,0,.384.384l.55-.55a2.106,2.106,0,0,0,1.021.424V53.9a.271.271,0,1,0,.543,0V53.12a2.106,2.106,0,0,0,1.021-.424l.55.55a.271.271,0,1,0,.384-.384l-.55-.55a2.106,2.106,0,0,0,.424-1.021H53.9a.271.271,0,0,0,0-.543ZM51.021,52.6A1.577,1.577,0,1,1,52.6,51.02,1.578,1.578,0,0,1,51.021,52.6Z" transform="translate(-4.581 614.244)"/><path d="M34.136,33.753l-.55-.55a2.106,2.106,0,0,0,.424-1.021h.777a.271.271,0,1,0,0-.543H34.01a2.107,2.107,0,0,0-.424-1.021l.55-.55a.271.271,0,0,0-.384-.384l-.55.55a2.106,2.106,0,0,0-1.021-.424v-.777a.271.271,0,1,0-.543,0v.777a2.106,2.106,0,0,0-1.021.424l-.55-.55a.271.271,0,1,0-.384.384l.55.55a2.107,2.107,0,0,0-.424,1.021h-.777a.271.271,0,0,0,0,.543h.777a2.106,2.106,0,0,0,.424,1.021l-.55.55a.271.271,0,1,0,.384.384l.55-.55a2.106,2.106,0,0,0,1.021.424v.777a.271.271,0,1,0,.543,0V34.01a2.106,2.106,0,0,0,1.021-.424l.55.55a.271.271,0,1,0,.384-.384Zm-2.226-.266a1.577,1.577,0,1,1,1.577-1.577A1.578,1.578,0,0,1,31.91,33.487Z" transform="translate(9.343 628.168)"/><path d="M30.724,56.292a1.414,1.414,0,1,0,1.414,1.414A1.416,1.416,0,0,0,30.724,56.292Zm0,2.286a.872.872,0,1,1,.872-.872A.873.873,0,0,1,30.724,58.578Z" transform="translate(8.944 608.109)"/><path d="M54.448,29.725a1.64,1.64,0,1,0-1.64-1.64A1.641,1.641,0,0,0,54.448,29.725Zm0-2.737a1.1,1.1,0,1,1-1.1,1.1A1.1,1.1,0,0,1,54.448,26.988Z" transform="translate(-8.178 629.856)"/><path d="M63.213,39.521a1.256,1.256,0,1,0,1.256-1.256A1.257,1.257,0,0,0,63.213,39.521Zm1.968,0a.713.713,0,1,1-.713-.713A.714.714,0,0,1,65.182,39.521Z" transform="translate(-15.759 621.243)"/></g></svg>