<svg xmlns="http://www.w3.org/2000/svg" width="14.321" height="17.393" viewBox="0 0 14.321 17.393"><defs><style>.a{stroke:#f5d073;stroke-width:0.5px;}</style></defs><path class="a" d="M40.3,23.911h1.659a3.835,3.835,0,0,0,2.915-1.341l2.768-3.23a2.3,2.3,0,0,1,1.749-.8h2.426V17H49.4a3.835,3.835,0,0,0-2.915,1.341l-2.769,3.23a2.3,2.3,0,0,1-1.749.8H40.3a2.306,2.306,0,0,0-2.3,2.3V27.75a2.306,2.306,0,0,0,2.3,2.3h2.3a3.839,3.839,0,1,0,7.679,0h1.536V28.518H49.96a3.832,3.832,0,0,0-7.028,0H40.3a.769.769,0,0,1-.768-.768V24.679A.769.769,0,0,1,40.3,23.911Zm6.143,3.839a2.3,2.3,0,1,1-2.3,2.3A2.306,2.306,0,0,1,46.446,27.75Z" transform="translate(-37.75 -16.75)"/></svg>