<svg xmlns="http://www.w3.org/2000/svg" width="29.286" height="24.602" viewBox="0 0 29.286 24.602"><path d="M31.572,20.4a6.448,6.448,0,0,0-5.872-5.86,4.095,4.095,0,0,0-8.114,0,6.448,6.448,0,0,0-5.872,5.86,5.271,5.271,0,0,0,.558,10.512h3.175a6.441,6.441,0,0,0,12.394,0h3.175A5.271,5.271,0,0,0,31.572,20.4Zm-4.763,9.81a5.277,5.277,0,1,1,.105-1.055A5.273,5.273,0,0,1,26.809,30.212Zm5.332-.627a4.093,4.093,0,0,1-1.126.158H28.056c.018-.2.029-.391.029-.586a6.443,6.443,0,0,0-12.886,0c0,.2.012.391.029.586H12.271a4.1,4.1,0,1,1,3.06-6.821l.875-.778c-.117-.132-.242-.256-.37-.374-.042-.039-.087-.074-.13-.111-.089-.077-.18-.153-.274-.224-.053-.04-.108-.077-.162-.115-.089-.062-.18-.122-.272-.177-.059-.036-.118-.07-.177-.1-.094-.052-.189-.1-.286-.147-.06-.029-.121-.058-.182-.085-.1-.045-.209-.084-.316-.122-.056-.02-.112-.043-.17-.061-.135-.043-.272-.08-.41-.112-.03-.007-.06-.017-.091-.023q-.238-.052-.483-.081a5.281,5.281,0,0,1,4.7-4.694,4.075,4.075,0,0,0,.1.48c.009.032.022.061.031.093.04.133.086.265.139.393.023.056.052.11.077.164.047.1.1.2.152.3.033.058.07.114.106.17.057.089.117.176.18.26.041.054.083.108.127.16.069.082.142.16.217.237.046.047.092.095.14.139.086.08.178.153.271.226.045.035.087.071.133.1a4.078,4.078,0,0,0,.449.281l.552-1.033a2.928,2.928,0,1,1,4.253-3.139c-.027,0-.053.011-.08.013a6.293,6.293,0,0,0-.737.125c-.02,0-.04.007-.06.012a6.356,6.356,0,0,0-.737.231c-.046.018-.092.034-.137.052a6.547,6.547,0,0,0-.686.324l-.119.069a6.514,6.514,0,0,0-.672.439l.7.935a5.222,5.222,0,0,1,3.162-1.061A5.28,5.28,0,0,1,30.4,20.408c-.025,0-.049.009-.073.012l-.1.016a5.362,5.362,0,0,0-.658.14l.32,1.126a4.1,4.1,0,0,1,2.25,7.883Z" transform="translate(-7 -10.999)"/><path d="M30.757,39a1.757,1.757,0,1,0,1.757,1.757A1.757,1.757,0,0,0,30.757,39Zm0,2.343a.586.586,0,1,1,.586-.586A.586.586,0,0,1,30.757,41.343Z" transform="translate(-16.114 -22.599)"/><rect height="1.5" transform="translate(14.286 15.013)"/><rect height="1.5" transform="translate(14.286 21.012)"/><rect width="1.5" transform="translate(17.286 18.012)"/><rect width="1.5" transform="translate(11.287 18.012)"/><rect width="1.171" height="1.171" transform="translate(15.886 16.087) rotate(-45)"/><rect width="1.171" height="1.171" transform="translate(11.744 20.229) rotate(-45)"/><rect width="1.171" height="1.171" transform="translate(15.886 20.229) rotate(-45)"/><rect width="1.171" height="1.171" transform="translate(11.744 16.087) rotate(-45)"/></svg>