<svg xmlns="http://www.w3.org/2000/svg" xmlns:xlink="http://www.w3.org/1999/xlink" width="94" height="94" viewBox="0 0 94 94"><defs><style>.a{fill:#f76868;}.b{fill:#fff;}.c{filter:url(#a);}</style><filter id="a" x="0" y="0" width="94" height="94" filterUnits="userSpaceOnUse"><feOffset dy="3" input="SourceAlpha"/><feGaussianBlur stdDeviation="5" result="b"/><feFlood flood-opacity="0.212"/><feComposite operator="in" in2="b"/><feComposite in="SourceGraphic"/></filter></defs><g transform="translate(-17 -572)"><g class="c" transform="matrix(1, 0, 0, 1, 17, 572)"><rect class="a" width="64" height="64" rx="31" transform="translate(15 12)"/></g><g transform="translate(-358.006 -1573)"><path class="b" d="M32.388,30.528a.474.474,0,1,0,.67-.67l-1.344-1.344a.475.475,0,0,0-.67.67Z" transform="translate(390.815 2159.14)"/><path class="b" d="M29.482,33.329a.475.475,0,1,0,.67-.674l-1.34-1.34a.475.475,0,1,0-.674.67Z" transform="translate(392.354 2157.684)"/><path class="b" d="M16.253,2A14.25,14.25,0,0,0,6.179,26.325h0a.565.565,0,0,0,.157.1.475.475,0,0,0,.518-.1h0L12.477,20.7l.337.333h0a1.425,1.425,0,0,0,2.014,0l.337-.332.333.333a2.375,2.375,0,0,0,3.358,0l3.358-3.358a.475.475,0,0,0,0-.67l-.67-.674,2.688-2.684a1.427,1.427,0,0,0-2.019-2.019l-2.684,2.688-1.344-1.344,2.688-2.684A1.427,1.427,0,0,0,18.856,8.27l-2.684,2.688-.674-.67a.475.475,0,0,0-.67,0L11.47,13.647a2.375,2.375,0,0,0,0,3.358l.333.333-.333.337a1.425,1.425,0,0,0,0,2.014l.332.337L6.525,25.308a13.3,13.3,0,1,1,9.728,4.242.475.475,0,1,0,0,.95,14.25,14.25,0,1,0,0-28.5ZM20.2,14.986,22.9,12.3a.475.475,0,0,1,.67.67l-2.684,2.689-.152-.152Zm-3.358-3.358,2.688-2.684a.475.475,0,1,1,.67.656l-2.684,2.688-.522-.523Zm-4.7,2.689L15.166,11.3l6.042,6.042-3.021,3.026a1.463,1.463,0,0,1-2.014,0L12.14,16.331a1.425,1.425,0,0,1,0-2.014Zm2.351,5.7-.337.337a.475.475,0,0,1-.67,0L12.14,19.01a.475.475,0,0,1,0-.67L12.477,18Z" transform="translate(406 2173)"/></g></g></svg>