<svg xmlns="http://www.w3.org/2000/svg" width="35" height="35" viewBox="0 0 35 35"><defs><style>.a{fill:#008111;}</style></defs><g transform="translate(-18 -19)"><path class="a" d="M35.5,19A17.5,17.5,0,1,0,53,36.5,17.517,17.517,0,0,0,35.5,19Zm0,32.879A15.379,15.379,0,1,1,50.879,36.5,15.39,15.39,0,0,1,35.5,51.879Z" transform="translate(0 0)"/><path class="a" d="M50.209,42.994,40.4,52.751a.161.161,0,0,1-.212,0L36.1,48.668a1.05,1.05,0,0,0-1.485,1.485L38.7,54.236a2.3,2.3,0,0,0,1.591.689,2.017,2.017,0,0,0,1.591-.689l9.811-9.811a1.032,1.032,0,1,0-1.485-1.432Z" transform="translate(-7.656 -11.107)"/></g></svg>