<svg xmlns="http://www.w3.org/2000/svg" width="20.456" height="15.252" viewBox="0 0 20.456 15.252"><defs><style>.a{stroke:#000;stroke-width:0.5px;}</style></defs><path class="a" d="M28.068,23.133a.846.846,0,0,0-1.1.463.774.774,0,0,0-.053.19h0l-1.878.067h0a1.432,1.432,0,0,0-.1-.34A1.538,1.538,0,1,0,22.35,25.1h0l-1.5,1.321a2.374,2.374,0,0,0-2.669-.6l-1.145-2.459a2.041,2.041,0,1,0-.222.094l1.147,2.466a2.377,2.377,0,0,0-1.241,2.186l-2.526.412h0a.241.241,0,0,0-.031-.084,1.249,1.249,0,0,0-.682-.675,1.283,1.283,0,0,0-.482-.094,1.261,1.261,0,0,0-.877.374h0l-.916-.653a1.392,1.392,0,0,0,.065-.135,1.352,1.352,0,1,0-1.254.844,1.374,1.374,0,0,0,.526-.106,1.314,1.314,0,0,0,.53-.4l.887.641h0a1.126,1.126,0,0,0-.118.219,1.254,1.254,0,0,0,.35,1.427l-.856,1.116-.06-.029a.908.908,0,1,0-.342,1.748.945.945,0,0,0,.352-.06.909.909,0,0,0,.241-1.516l.856-1.111h0a.964.964,0,0,0,.142.07,1.205,1.205,0,0,0,.482.094,1.256,1.256,0,0,0,1.164-.781,1.232,1.232,0,0,0,.082-.644l2.493-.407a2.37,2.37,0,0,0,1.446,1.863,2.338,2.338,0,0,0,1.774,0h0l.909,2h0a1.075,1.075,0,1,0,.55-.152,1.061,1.061,0,0,0-.328.051h0l-.906-2a2.35,2.35,0,0,0,1.1-1.205,2.377,2.377,0,0,0-.287-2.3h0l1.521-1.335a1.555,1.555,0,0,0,.419.26,1.536,1.536,0,0,0,.583.116,1.565,1.565,0,0,0,.6-.121,1.545,1.545,0,0,0,.943-1.446l1.854-.067a.844.844,0,0,0,.516.68.82.82,0,0,0,.316.063.844.844,0,0,0,.321-1.625ZM22.26,33.146a.836.836,0,1,1-.836-.836A.836.836,0,0,1,22.26,33.146ZM24.724,24.6a1.3,1.3,0,1,1,.1-.482,1.282,1.282,0,0,1-.1.482Zm-4.809,5.383a2.133,2.133,0,1,1,1.147-1.16A2.133,2.133,0,0,1,19.915,29.984ZM15.453,23.2a1.794,1.794,0,1,1,2.338-.981A1.794,1.794,0,0,1,15.453,23.2Zm-2.837,6.663a1.017,1.017,0,1,1,1.323-.557,1.017,1.017,0,0,1-1.323.557Zm-1.07,2.194a.668.668,0,1,1-.875-.856.634.634,0,0,1,.258-.053.656.656,0,0,1,.241.051A.668.668,0,0,1,11.545,32.062Z" transform="translate(-8.395 -19.239)"/></svg>