<svg xmlns="http://www.w3.org/2000/svg" width="26.873" height="24.016" viewBox="0 0 26.873 24.016"><defs><style>.a{fill:#012560;}</style></defs><g transform="translate(-52.606 -827)"><path class="a" d="M37.675,36.587a.459.459,0,0,0-.463-.463h-.518l.6-.681a.444.444,0,1,0-.654-.6l-1.145,1.281H31.378l2.917-2.917,1.608.082a.464.464,0,0,0,.354-.763.438.438,0,0,0-.3-.136l-.791-.055.354-.354a.451.451,0,0,0,.136-.327.5.5,0,0,0-.136-.327.462.462,0,0,0-.627,0l-.436.436-.109-.981a.377.377,0,0,0-.164-.3.476.476,0,0,0-.327-.109.455.455,0,0,0-.409.491l.136,1.772L30.724,35.5V31.572l1.308-1.118a.445.445,0,0,0-.572-.682l-.736.627v-.736a.459.459,0,0,0-.463-.463.444.444,0,0,0-.463.463v.682l-.6-.572a.444.444,0,0,0-.6.654l1.227,1.118V35.5l-2.862-2.862.136-1.772a.476.476,0,0,0-.109-.327.65.65,0,0,0-.3-.164.469.469,0,0,0-.491.409l-.082,1.009-.436-.436a.462.462,0,0,0-.627,0,.451.451,0,0,0-.136.327.5.5,0,0,0,.136.327l.354.354-.791.055a.438.438,0,0,0-.3.136.476.476,0,0,0-.109.327.454.454,0,0,0,.463.436h0l1.608-.082L29.2,36.151H25.108L24.045,34.87a.445.445,0,1,0-.681.572l.572.681h-.572a.463.463,0,0,0,0,.927h.627l-.6.681a.436.436,0,0,0,.027.627.46.46,0,0,0,.627-.027l1.145-1.281H29.2L26.28,39.968l-1.608-.082a.476.476,0,0,0-.327.109.463.463,0,0,0,.3.791l.791.055-.354.354a.451.451,0,0,0-.136.327.5.5,0,0,0,.136.327.462.462,0,0,0,.627,0l.436-.436.082,1.009a.443.443,0,0,0,.436.409h.027a.455.455,0,0,0,.409-.491l-.136-1.745,2.862-2.862v4.2L28.57,42.994a.445.445,0,1,0,.572.681l.682-.572v.463a.459.459,0,0,0,.463.463.444.444,0,0,0,.463-.463v-.491l.682.6a.436.436,0,0,0,.627-.027.476.476,0,0,0,.109-.327.438.438,0,0,0-.136-.3l-1.281-1.145v-4.2l2.862,2.862-.136,1.772a.455.455,0,0,0,.409.491h.055a.425.425,0,0,0,.436-.409l.082-1.009.436.436a.462.462,0,0,0,.627,0,.451.451,0,0,0,.136-.327.5.5,0,0,0-.136-.327l-.354-.354.791-.055a.454.454,0,0,0,.436-.463.426.426,0,0,0-.164-.327.435.435,0,0,0-.327-.109l-1.608.082-2.917-2.89h4.2L36.639,38.3a.445.445,0,1,0,.682-.572l-.572-.681h.463A.478.478,0,0,0,37.675,36.587Z" transform="translate(35.698 804.152)"/><path class="a" d="M27.6,15.332,14.464,5.982a.5.5,0,0,0-.545,0L8.713,9.8V6.963A.478.478,0,0,0,8.249,6.5H4.624a.478.478,0,0,0-.463.463V13.1L1.107,15.332A.469.469,0,0,0,1,15.959a.469.469,0,0,0,.627.109L4.16,14.242V29.453a.478.478,0,0,0,.463.463H23.978a.478.478,0,0,0,.463-.463V14.214L27.086,16.1a.461.461,0,0,0,.273.082.476.476,0,0,0,.382-.191A.538.538,0,0,0,27.6,15.332ZM5.087,7.427H7.813v3.026l-2.726,1.99ZM23.515,28.989H5.087V13.56l9.1-6.624,9.323,6.624Z" transform="translate(51.684 821.1)"/></g></svg>