<svg xmlns="http://www.w3.org/2000/svg" width="19.684" height="14.56" viewBox="0 0 19.684 14.56"><defs><style>.a{fill:#012560;}</style></defs><g transform="translate(-2.658 -5.22)"><path class="a" d="M19.842,5.22H5.158a2.5,2.5,0,0,0-2.5,2.5v9.56a2.5,2.5,0,0,0,2.5,2.5H19.842a2.5,2.5,0,0,0,2.5-2.5V7.72A2.5,2.5,0,0,0,19.842,5.22Zm1.5,12.06a1.5,1.5,0,0,1-1.5,1.5H5.158a1.5,1.5,0,0,1-1.5-1.5V7.72a1.5,1.5,0,0,1,1.5-1.5H19.842a1.5,1.5,0,0,1,1.5,1.5ZM20.315,9.341a.5.5,0,0,1-.233.668h0l-7.365,3.54a.507.507,0,0,1-.434,0l-7.365-3.54a.5.5,0,0,1,.434-.9L12.5,12.543l7.148-3.436A.5.5,0,0,1,20.315,9.341Z"/></g></svg>